{
  "accessors": [
    {
      "bufferView": 2,
      "componentType": 5126,
      "count": 65532,
      "max": [
        1.9253309965133667,
        0.011292999610304832,
        2.33144211769104
      ],
      "min": [
        -1.9312299489974976,
        -0.3191019892692566,
        0.006707000080496073
      ],
      "type": "VEC3"
    },
    {
      "bufferView": 2,
      "byteOffset": 786384,
      "componentType": 5126,
      "count": 65532,
      "max": [
        0.9999880194664001,
        0.999984860420227,
        0.9999974966049194
      ],
      "min": [
        -0.9999575018882751,
        -0.9999998807907104,
        -0.9999996423721313
      ],
      "type": "VEC3"
    },
    {
      "bufferView": 1,
      "componentType": 5126,
      "count": 65532,
      "max": [
        0.9988099932670593,
        0.9988189935684204
      ],
      "min": [
        0.00029600001289509237,
        0.00029600001289509237
      ],
      "type": "VEC2"
    },
    {
      "bufferView": 0,
      "componentType": 5125,
      "count": 337731,
      "type": "SCALAR"
    },
    {
      "bufferView": 2,
      "byteOffset": 1572768,
      "componentType": 5126,
      "count": 65532,
      "max": [
        0.902118980884552,
        0.019314000383019447,
        2.3236169815063477
      ],
      "min": [
        -1.9388070106506348,
        -0.30062198638916016,
        0.015579000115394592
      ],
      "type": "VEC3"
    },
    {
      "bufferView": 2,
      "byteOffset": 2359152,
      "componentType": 5126,
      "count": 65532,
      "max": [
        0.9997758865356445,
        0.9995304942131042,
        0.9999661445617676
      ],
      "min": [
        -0.9999973773956299,
        -1.0,
        -0.9999389052391052
      ],
      "type": "VEC3"
    },
    {
      "bufferView": 1,
      "byteOffset": 524256,
      "componentType": 5126,
      "count": 65532,
      "max": [
        0.9987779855728149,
        0.9988139867782593
      ],
      "min": [
        0.00029600001289509237,
        0.00029600001289509237
      ],
      "type": "VEC2"
    },
    {
      "bufferView": 0,
      "byteOffset": 1350924,
      "componentType": 5125,
      "count": 332172,
      "type": "SCALAR"
    },
    {
      "bufferView": 2,
      "byteOffset": 3145536,
      "componentType": 5126,
      "count": 12779,
      "max": [
        0.6969850063323975,
        0.009847000241279602,
        2.255774974822998
      ],
      "min": [
        -1.9313889741897583,
        -0.27061301469802856,
        0.20087899267673492
      ],
      "type": "VEC3"
    },
    {
      "bufferView": 2,
      "byteOffset": 3298884,
      "componentType": 5126,
      "count": 12779,
      "max": [
        0.9998613595962524,
        0.9971201419830322,
        0.9999150037765503
      ],
      "min": [
        -0.9996241331100464,
        -0.9999971389770508,
        -0.9992855191230774
      ],
      "type": "VEC3"
    },
    {
      "bufferView": 1,
      "byteOffset": 1048512,
      "componentType": 5126,
      "count": 12779,
      "max": [
        0.9987720251083374,
        0.998803973197937
      ],
      "min": [
        0.00029600001289509237,
        0.00029600001289509237
      ],
      "type": "VEC2"
    },
    {
      "bufferView": 0,
      "byteOffset": 2679612,
      "componentType": 5125,
      "count": 54675,
      "type": "SCALAR"
    }
  ],
  "asset": {
    "extras": {
      "author": "dlfitch (https://sketchfab.com/dlfitch)",
      "license": "CC-BY-4.0 (http://creativecommons.org/licenses/by/4.0/)",
      "source": "https://sketchfab.com/3d-models/chinese-stone-engraving-de2be37176514cff85dff84045e553c3",
      "title": "Chinese Stone Engraving"
    },
    "generator": "Sketchfab-12.68.0",
    "version": "2.0"
  },
  "bufferViews": [
    {
      "buffer": 0,
      "byteLength": 2898312,
      "name": "floatBufferViews",
      "target": 34963
    },
    {
      "buffer": 0,
      "byteLength": 1150744,
      "byteOffset": 2898312,
      "byteStride": 8,
      "name": "floatBufferViews",
      "target": 34962
    },
    {
      "buffer": 0,
      "byteLength": 3452232,
      "byteOffset": 4049056,
      "byteStride": 12,
      "name": "floatBufferViews",
      "target": 34962
    }
  ],
  "buffers": [
    {
      "byteLength": 7501288,
      "uri": "scene.bin"
    }
  ],
  "extensionsUsed": [
    "KHR_materials_unlit"
  ],
  "images": [
    {
      "uri": "textures/engraving2_final_mosaicengraving2_final_mosaic_baseColor.jpeg"
    }
  ],
  "materials": [
    {
      "doubleSided": true,
      "extensions": {
        "KHR_materials_unlit": {}
      },
      "name": "engraving2_final_mosaicengraving2_final_mosaic",
      "pbrMetallicRoughness": {
        "baseColorTexture": {
          "index": 0
        },
        "metallicFactor": 0.0
      }
    }
  ],
  "meshes": [
    {
      "name": "Object_0",
      "primitives": [
        {
          "attributes": {
            "NORMAL": 1,
            "POSITION": 0,
            "TEXCOORD_0": 2
          },
          "indices": 3,
          "material": 0,
          "mode": 4
        }
      ]
    },
    {
      "name": "Object_1",
      "primitives": [
        {
          "attributes": {
            "NORMAL": 5,
            "POSITION": 4,
            "TEXCOORD_0": 6
          },
          "indices": 7,
          "material": 0,
          "mode": 4
        }
      ]
    },
    {
      "name": "Object_2",
      "primitives": [
        {
          "attributes": {
            "NORMAL": 9,
            "POSITION": 8,
            "TEXCOORD_0": 10
          },
          "indices": 11,
          "material": 0,
          "mode": 4
        }
      ]
    }
  ],
  "nodes": [
    {
      "children": [
        1
      ],
      "matrix": [
        1.0,
        0.0,
        0.0,
        0.0,
        0.0,
        2.220446049250313e-16,
        -1.0,
        0.0,
        0.0,
        1.0,
        2.220446049250313e-16,
        0.0,
        0.0,
        0.0,
        0.0,
        1.0
      ],
      "name": "Sketchfab_model"
    },
    {
      "children": [
        2,
        3,
        4
      ],
      "name": "engraving2_sketchfab.obj.cleaner.materialmerger.gles"
    },
    {
      "mesh": 0,
      "name": "Object_2"
    },
    {
      "mesh": 1,
      "name": "Object_3"
    },
    {
      "mesh": 2,
      "name": "Object_4"
    }
  ],
  "samplers": [
    {
      "magFilter": 9729,
      "minFilter": 9987,
      "wrapS": 10497,
      "wrapT": 10497
    }
  ],
  "scene": 0,
  "scenes": [
    {
      "name": "Sketchfab_Scene",
      "nodes": [
        0
      ]
    }
  ],
  "textures": [
    {
      "sampler": 0,
      "source": 0
    }
  ]
}
