{
  "accessors": [
    {
      "bufferView": 2,
      "componentType": 5126,
      "count": 65532,
      "max": [
        4.9066691398620605,
        1.6651040315628052,
        3.844778060913086
      ],
      "min": [
        -3.2730960845947266,
        -14.459670066833496,
        -4.864284992218018
      ],
      "type": "VEC3"
    },
    {
      "bufferView": 2,
      "byteOffset": 786384,
      "componentType": 5126,
      "count": 65532,
      "max": [
        0.9999811053276062,
        0.9995877742767334,
        0.9999940991401672
      ],
      "min": [
        -0.9999988675117493,
        -0.9999988675117493,
        -0.9999831318855286
      ],
      "type": "VEC3"
    },
    {
      "bufferView": 1,
      "componentType": 5126,
      "count": 65532,
      "max": [
        0.9985349774360657,
        0.9980409741401672
      ],
      "min": [
        0.0014649999793618917,
        0.013957000337541103
      ],
      "type": "VEC2"
    },
    {
      "bufferView": 0,
      "componentType": 5125,
      "count": 340653,
      "type": "SCALAR"
    },
    {
      "bufferView": 2,
      "byteOffset": 1572768,
      "componentType": 5126,
      "count": 65532,
      "max": [
        3.3237531185150146,
        1.512362003326416,
        3.8432300090789795
      ],
      "min": [
        -5.178685188293457,
        -7.398234844207764,
        -5.1994781494140625
      ],
      "type": "VEC3"
    },
    {
      "bufferView": 2,
      "byteOffset": 2359152,
      "componentType": 5126,
      "count": 65532,
      "max": [
        0.9999872446060181,
        0.9999920129776001,
        0.999997615814209
      ],
      "min": [
        -0.999939501285553,
        -0.9999984502792358,
        -0.9998357892036438
      ],
      "type": "VEC3"
    },
    {
      "bufferView": 1,
      "byteOffset": 524256,
      "componentType": 5126,
      "count": 65532,
      "max": [
        0.9985349774360657,
        0.9985309839248657
      ],
      "min": [
        0.0014649999793618917,
        0.0014690000098198652
      ],
      "type": "VEC2"
    },
    {
      "bufferView": 0,
      "byteOffset": 1362612,
      "componentType": 5125,
      "count": 354261,
      "type": "SCALAR"
    },
    {
      "bufferView": 2,
      "byteOffset": 3145536,
      "componentType": 5126,
      "count": 65532,
      "max": [
        3.8365509510040283,
        1.6279330253601074,
        5.55464506149292
      ],
      "min": [
        -2.702536106109619,
        -10.56547737121582,
        -5.570888996124268
      ],
      "type": "VEC3"
    },
    {
      "bufferView": 2,
      "byteOffset": 3931920,
      "componentType": 5126,
      "count": 65532,
      "max": [
        0.9999953508377075,
        0.9997766613960266,
        0.9999986290931702
      ],
      "min": [
        -0.9998754858970642,
        -0.9999996423721313,
        -0.999999463558197
      ],
      "type": "VEC3"
    },
    {
      "bufferView": 1,
      "byteOffset": 1048512,
      "componentType": 5126,
      "count": 65532,
      "max": [
        0.9985349774360657,
        0.9975510239601135
      ],
      "min": [
        0.0014649999793618917,
        0.0014690000098198652
      ],
      "type": "VEC2"
    },
    {
      "bufferView": 0,
      "byteOffset": 2779656,
      "componentType": 5125,
      "count": 344430,
      "type": "SCALAR"
    },
    {
      "bufferView": 2,
      "byteOffset": 4718304,
      "componentType": 5126,
      "count": 65532,
      "max": [
        2.3915300369262695,
        -7.134040832519531,
        5.374936103820801
      ],
      "min": [
        -2.383573055267334,
        -15.750426292419434,
        -5.786489009857178
      ],
      "type": "VEC3"
    },
    {
      "bufferView": 2,
      "byteOffset": 5504688,
      "componentType": 5126,
      "count": 65532,
      "max": [
        0.9999973773956299,
        0.9999916553497314,
        0.9999984502792358
      ],
      "min": [
        -0.9999866485595703,
        -0.9999707341194153,
        -0.999999463558197
      ],
      "type": "VEC3"
    },
    {
      "bufferView": 1,
      "byteOffset": 1572768,
      "componentType": 5126,
      "count": 65532,
      "max": [
        0.9985349774360657,
        0.9958369731903076
      ],
      "min": [
        0.0014649999793618917,
        0.0014690000098198652
      ],
      "type": "VEC2"
    },
    {
      "bufferView": 0,
      "byteOffset": 4157376,
      "componentType": 5125,
      "count": 349932,
      "type": "SCALAR"
    },
    {
      "bufferView": 2,
      "byteOffset": 6291072,
      "componentType": 5126,
      "count": 65532,
      "max": [
        2.6430630683898926,
        -7.2190399169921875,
        3.1950790882110596
      ],
      "min": [
        -2.3338429927825928,
        -16.17304229736328,
        -1.4371720552444458
      ],
      "type": "VEC3"
    },
    {
      "bufferView": 2,
      "byteOffset": 7077456,
      "componentType": 5126,
      "count": 65532,
      "max": [
        0.9999971389770508,
        0.9997928738594055,
        0.9999504685401917
      ],
      "min": [
        -0.9999971389770508,
        -0.9999813437461853,
        -0.999995768070221
      ],
      "type": "VEC3"
    },
    {
      "bufferView": 1,
      "byteOffset": 2097024,
      "componentType": 5126,
      "count": 65532,
      "max": [
        0.9985349774360657,
        0.9985309839248657
      ],
      "min": [
        0.0014649999793618917,
        0.0014690000098198652
      ],
      "type": "VEC2"
    },
    {
      "bufferView": 0,
      "byteOffset": 5557104,
      "componentType": 5125,
      "count": 339942,
      "type": "SCALAR"
    },
    {
      "bufferView": 2,
      "byteOffset": 7863840,
      "componentType": 5126,
      "count": 11772,
      "max": [
        2.638277053833008,
        -7.180191993713379,
        2.2604260444641113
      ],
      "min": [
        -0.7299919724464417,
        -11.591078758239746,
        -1.3967839479446411
      ],
      "type": "VEC3"
    },
    {
      "bufferView": 2,
      "byteOffset": 8005104,
      "componentType": 5126,
      "count": 11772,
      "max": [
        0.999991774559021,
        0.8590379953384399,
        0.9996611475944519
      ],
      "min": [
        -0.9695702195167542,
        -0.9998957514762878,
        -0.9999733567237854
      ],
      "type": "VEC3"
    },
    {
      "bufferView": 1,
      "byteOffset": 2621280,
      "componentType": 5126,
      "count": 11772,
      "max": [
        0.9970700144767761,
        0.9936339855194092
      ],
      "min": [
        0.002196999965235591,
        0.06611199676990509
      ],
      "type": "VEC2"
    },
    {
      "bufferView": 0,
      "byteOffset": 6916872,
      "componentType": 5125,
      "count": 58323,
      "type": "SCALAR"
    }
  ],
  "asset": {
    "extras": {
      "author": "Geoffrey Marchal (https://sketchfab.com/geoffreymarchal)",
      "license": "CC-BY-4.0 (http://creativecommons.org/licenses/by/4.0/)",
      "source": "https://sketchfab.com/3d-models/chinese-bell-2847128a87a946ba832f6ecc2dc71621",
      "title": "Chinese Bell"
    },
    "generator": "Sketchfab-12.68.0",
    "version": "2.0"
  },
  "bufferViews": [
    {
      "buffer": 0,
      "byteLength": 7150164,
      "name": "floatBufferViews",
      "target": 34963
    },
    {
      "buffer": 0,
      "byteLength": 2715456,
      "byteOffset": 7150164,
      "byteStride": 8,
      "name": "floatBufferViews",
      "target": 34962
    },
    {
      "buffer": 0,
      "byteLength": 8146368,
      "byteOffset": 9865620,
      "byteStride": 12,
      "name": "floatBufferViews",
      "target": 34962
    }
  ],
  "buffers": [
    {
      "byteLength": 18011988,
      "uri": "scene.bin"
    }
  ],
  "images": [
    {
      "uri": "textures/Material_0_baseColor.jpeg"
    }
  ],
  "materials": [
    {
      "doubleSided": true,
      "name": "Material_0",
      "pbrMetallicRoughness": {
        "baseColorTexture": {
          "index": 0
        },
        "metallicFactor": 0.0
      }
    }
  ],
  "meshes": [
    {
      "name": "Object_0",
      "primitives": [
        {
          "attributes": {
            "NORMAL": 1,
            "POSITION": 0,
            "TEXCOORD_0": 2
          },
          "indices": 3,
          "material": 0,
          "mode": 4
        }
      ]
    },
    {
      "name": "Object_1",
      "primitives": [
        {
          "attributes": {
            "NORMAL": 5,
            "POSITION": 4,
            "TEXCOORD_0": 6
          },
          "indices": 7,
          "material": 0,
          "mode": 4
        }
      ]
    },
    {
      "name": "Object_2",
      "primitives": [
        {
          "attributes": {
            "NORMAL": 9,
            "POSITION": 8,
            "TEXCOORD_0": 10
          },
          "indices": 11,
          "material": 0,
          "mode": 4
        }
      ]
    },
    {
      "name": "Object_3",
      "primitives": [
        {
          "attributes": {
            "NORMAL": 13,
            "POSITION": 12,
            "TEXCOORD_0": 14
          },
          "indices": 15,
          "material": 0,
          "mode": 4
        }
      ]
    },
    {
      "name": "Object_4",
      "primitives": [
        {
          "attributes": {
            "NORMAL": 17,
            "POSITION": 16,
            "TEXCOORD_0": 18
          },
          "indices": 19,
          "material": 0,
          "mode": 4
        }
      ]
    },
    {
      "name": "Object_5",
      "primitives": [
        {
          "attributes": {
            "NORMAL": 21,
            "POSITION": 20,
            "TEXCOORD_0": 22
          },
          "indices": 23,
          "material": 0,
          "mode": 4
        }
      ]
    }
  ],
  "nodes": [
    {
      "children": [
        1
      ],
      "matrix": [
        0.2720075249671936,
        -4.357170435551725e-16,
        0.9622951149940491,
        0.0,
        5.551115123125783e-16,
        -1.0,
        -1.1657341758564144e-15,
        0.0,
        0.9622951149940491,
        1.2816431305056483e-15,
        -0.2720075249671936,
        0.0,
        0.012540902011096478,
        -7.369867324829103,
        7.353290557861326,
        1.0
      ],
      "name": "Sketchfab_model"
    },
    {
      "children": [
        2,
        3,
        4,
        5,
        6,
        7
      ],
      "name": "bell chinese.obj.cleaner.materialmerger.gles"
    },
    {
      "mesh": 0,
      "name": "Object_2"
    },
    {
      "mesh": 1,
      "name": "Object_3"
    },
    {
      "mesh": 2,
      "name": "Object_4"
    },
    {
      "mesh": 3,
      "name": "Object_5"
    },
    {
      "mesh": 4,
      "name": "Object_6"
    },
    {
      "mesh": 5,
      "name": "Object_7"
    }
  ],
  "samplers": [
    {
      "magFilter": 9729,
      "minFilter": 9987,
      "wrapS": 10497,
      "wrapT": 10497
    }
  ],
  "scene": 0,
  "scenes": [
    {
      "name": "Sketchfab_Scene",
      "nodes": [
        0
      ]
    }
  ],
  "textures": [
    {
      "sampler": 0,
      "source": 0
    }
  ]
}
