{
  "accessors": [
    {
      "bufferView": 2,
      "componentType": 5126,
      "count": 60860,
      "max": [
        1.1378259658813477,
        1.4363460540771484,
        4.245489120483398
      ],
      "min": [
        -0.7947790026664734,
        -1.3489830493927002,
        -0.05103899911046028
      ],
      "type": "VEC3"
    },
    {
      "bufferView": 2,
      "byteOffset": 730320,
      "componentType": 5126,
      "count": 60860,
      "max": [
        0.9999997615814209,
        0.9999996423721313,
        0.9999997615814209
      ],
      "min": [
        -0.9999996423721313,
        -1.0,
        -0.9999973773956299
      ],
      "type": "VEC3"
    },
    {
      "bufferView": 1,
      "componentType": 5126,
      "count": 60860,
      "max": [
        0.9994890093803406,
        0.9975579977035522
      ],
      "min": [
        0.0004879999905824661,
        0.000493000028654933
      ],
      "type": "VEC2"
    },
    {
      "bufferView": 0,
      "componentType": 5125,
      "count": 299988,
      "type": "SCALAR"
    }
  ],
  "asset": {
    "extras": {
      "author": "Game industry veteran (https://sketchfab.com/zhengzhangxun)",
      "license": "CC-BY-4.0 (http://creativecommons.org/licenses/by/4.0/)",
      "source": "https://sketchfab.com/3d-models/stone-chinese-lion-small-4517f1db90604deba67052c934116206",
      "title": "stone_chinese_lion_small"
    },
    "generator": "Sketchfab-12.66.0",
    "version": "2.0"
  },
  "bufferViews": [
    {
      "buffer": 0,
      "byteLength": 1199952,
      "name": "floatBufferViews",
      "target": 34963
    },
    {
      "buffer": 0,
      "byteLength": 486880,
      "byteOffset": 1199952,
      "byteStride": 8,
      "name": "floatBufferViews",
      "target": 34962
    },
    {
      "buffer": 0,
      "byteLength": 1460640,
      "byteOffset": 1686832,
      "byteStride": 12,
      "name": "floatBufferViews",
      "target": 34962
    }
  ],
  "buffers": [
    {
      "byteLength": 3147472,
      "uri": "scene.bin"
    }
  ],
  "extensionsRequired": [
    "KHR_materials_pbrSpecularGlossiness"
  ],
  "extensionsUsed": [
    "KHR_materials_pbrSpecularGlossiness"
  ],
  "images": [
    {
      "uri": "textures/stone_chinese_lion_small_u1_v1_diffuse.jpeg"
    },
    {
      "uri": "textures/stone_chinese_lion_small_u1_v1_specularGlossiness.png"
    }
  ],
  "materials": [
    {
      "doubleSided": true,
      "extensions": {
        "KHR_materials_pbrSpecularGlossiness": {
          "diffuseFactor": [
            1.0,
            1.0,
            1.0,
            1.0
          ],
          "diffuseTexture": {
            "index": 0
          },
          "glossinessFactor": 1.0,
          "specularFactor": [
            0.6181849714868987,
            0.6181849714868987,
            0.6181849714868987
          ],
          "specularGlossinessTexture": {
            "index": 1
          }
        }
      },
      "name": "stone_chinese_lion_small_u1_v1"
    }
  ],
  "meshes": [
    {
      "name": "Object_0",
      "primitives": [
        {
          "attributes": {
            "NORMAL": 1,
            "POSITION": 0,
            "TEXCOORD_0": 2
          },
          "indices": 3,
          "material": 0,
          "mode": 4
        }
      ]
    }
  ],
  "nodes": [
    {
      "children": [
        1
      ],
      "matrix": [
        1.0,
        0.0,
        0.0,
        0.0,
        0.0,
        2.220446049250313e-16,
        -1.0,
        0.0,
        0.0,
        1.0,
        2.220446049250313e-16,
        0.0,
        0.0,
        0.0,
        0.0,
        1.0
      ],
      "name": "Sketchfab_model"
    },
    {
      "children": [
        2
      ],
      "name": "stone_chinese_lion_small.obj.cleaner.materialmerger.gles"
    },
    {
      "mesh": 0,
      "name": "Object_2"
    }
  ],
  "samplers": [
    {
      "magFilter": 9729,
      "minFilter": 9987,
      "wrapS": 10497,
      "wrapT": 10497
    }
  ],
  "scene": 0,
  "scenes": [
    {
      "name": "Sketchfab_Scene",
      "nodes": [
        0
      ]
    }
  ],
  "textures": [
    {
      "sampler": 0,
      "source": 0
    },
    {
      "sampler": 0,
      "source": 1
    }
  ]
}
