{
  "accessors": [
    {
      "bufferView": 2,
      "componentType": 5126,
      "count": 32900,
      "max": [
        0.13137799501419067,
        0.9634929895401001,
        0.13089600205421448
      ],
      "min": [
        -0.09246200323104858,
        0.6952139735221863,
        -0.18192200362682343
      ],
      "type": "VEC3"
    },
    {
      "bufferView": 2,
      "byteOffset": 394800,
      "componentType": 5126,
      "count": 32900,
      "max": [
        0.9999436140060425,
        0.9999245405197144,
        0.9999185800552368
      ],
      "min": [
        -0.9999967813491821,
        -0.9997361302375793,
        -0.9989504814147949
      ],
      "type": "VEC3"
    },
    {
      "bufferView": 1,
      "componentType": 5126,
      "count": 32900,
      "max": [
        0.8228089809417725,
        0.9999690055847168
      ],
      "min": [
        7.899999764049426e-05,
        2.5999999706982635e-05
      ],
      "type": "VEC2"
    },
    {
      "bufferView": 0,
      "componentType": 5125,
      "count": 192114,
      "type": "SCALAR"
    }
  ],
  "asset": {
    "extras": {
      "author": "Minneapolis Institute of Art (https://sketchfab.com/artsmia)",
      "license": "CC0-1.0 (http://creativecommons.org/publicdomain/zero/1.0/)",
      "source": "https://sketchfab.com/3d-models/hu-wine-vessel-base-late-9th-8th-century-bce-3144892f3f4147048107eefcc210f185",
      "title": "Hu wine vessel (base), late 9th-8th century BCE"
    },
    "generator": "Sketchfab-12.64.0",
    "version": "2.0"
  },
  "bufferViews": [
    {
      "buffer": 0,
      "byteLength": 768456,
      "name": "floatBufferViews",
      "target": 34963
    },
    {
      "buffer": 0,
      "byteLength": 263200,
      "byteOffset": 768456,
      "byteStride": 8,
      "name": "floatBufferViews",
      "target": 34962
    },
    {
      "buffer": 0,
      "byteLength": 789600,
      "byteOffset": 1031656,
      "byteStride": 12,
      "name": "floatBufferViews",
      "target": 34962
    }
  ],
  "buffers": [
    {
      "byteLength": 1821256,
      "uri": "scene.bin"
    }
  ],
  "images": [
    {
      "uri": "textures/160407_mia337_017756_a_OBJ.files_baseColor.jpeg"
    },
    {
      "uri": "textures/160407_mia337_017756_a_OBJ.files_metallicRoughness.png"
    }
  ],
  "materials": [
    {
      "doubleSided": true,
      "name": "160407_mia337_017756_a_OBJ.files",
      "pbrMetallicRoughness": {
        "baseColorTexture": {
          "index": 0
        },
        "metallicFactor": 0.9834222561,
        "metallicRoughnessTexture": {
          "index": 1
        }
      }
    }
  ],
  "meshes": [
    {
      "name": "Object_0",
      "primitives": [
        {
          "attributes": {
            "NORMAL": 1,
            "POSITION": 0,
            "TEXCOORD_0": 2
          },
          "indices": 3,
          "material": 0,
          "mode": 4
        }
      ]
    }
  ],
  "nodes": [
    {
      "children": [
        1
      ],
      "matrix": [
        1.481353940455996,
        0.06004877247382853,
        0.13877089542571497,
        0.0,
        0.15078995470517054,
        -0.6879682439293507,
        -1.31195844359997,
        0.0,
        0.011207457561453471,
        1.3192295553770708,
        -0.6904929946881918,
        0.0,
        -0.08369255065917969,
        0.37948188185691833,
        -0.11227895319461814,
        1.0
      ],
      "name": "Sketchfab_model"
    },
    {
      "children": [
        2
      ],
      "name": "160407_mia337_017756_a_OBJ.files.obj.cleaner.materialmerger.gles"
    },
    {
      "mesh": 0,
      "name": "Object_2"
    }
  ],
  "samplers": [
    {
      "magFilter": 9729,
      "minFilter": 9987,
      "wrapS": 10497,
      "wrapT": 10497
    }
  ],
  "scene": 0,
  "scenes": [
    {
      "name": "Sketchfab_Scene",
      "nodes": [
        0
      ]
    }
  ],
  "textures": [
    {
      "sampler": 0,
      "source": 0
    },
    {
      "sampler": 0,
      "source": 1
    }
  ]
}
