{
  "accessors": [
    {
      "bufferView": 2,
      "componentType": 5126,
      "count": 65532,
      "max": [
        1.2431520223617554,
        9.820198059082031,
        -0.7600979804992676
      ],
      "min": [
        -0.28547200560569763,
        8.74908447265625,
        -1.3444269895553589
      ],
      "type": "VEC3"
    },
    {
      "bufferView": 2,
      "byteOffset": 786384,
      "componentType": 5126,
      "count": 65532,
      "max": [
        0.9999956488609314,
        0.9848210215568542,
        0.9999777674674988
      ],
      "min": [
        -0.9999946355819702,
        -0.9999995827674866,
        -0.9999890923500061
      ],
      "type": "VEC3"
    },
    {
      "bufferView": 1,
      "componentType": 5126,
      "count": 65532,
      "max": [
        0.8949819803237915,
        0.7674760222434998
      ],
      "min": [
        0.21911300718784332,
        0.37397998571395874
      ],
      "type": "VEC2"
    },
    {
      "bufferView": 0,
      "componentType": 5125,
      "count": 348189,
      "type": "SCALAR"
    },
    {
      "bufferView": 2,
      "byteOffset": 1572768,
      "componentType": 5126,
      "count": 65532,
      "max": [
        1.6958249807357788,
        9.767459869384766,
        1.2299070358276367
      ],
      "min": [
        -0.6155310273170471,
        8.359403610229492,
        -1.3445429801940918
      ],
      "type": "VEC3"
    },
    {
      "bufferView": 2,
      "byteOffset": 2359152,
      "componentType": 5126,
      "count": 65532,
      "max": [
        0.9999945163726807,
        0.6869110465049744,
        0.9999777674674988
      ],
      "min": [
        -0.9999082088470459,
        -0.9999995827674866,
        -0.999999463558197
      ],
      "type": "VEC3"
    },
    {
      "bufferView": 1,
      "byteOffset": 524256,
      "componentType": 5126,
      "count": 65532,
      "max": [
        0.8860509991645813,
        0.9660130143165588
      ],
      "min": [
        0.09583400189876556,
        0.004069000016897917
      ],
      "type": "VEC2"
    },
    {
      "bufferView": 0,
      "byteOffset": 1392756,
      "componentType": 5125,
      "count": 338865,
      "type": "SCALAR"
    },
    {
      "bufferView": 2,
      "byteOffset": 3145536,
      "componentType": 5126,
      "count": 65532,
      "max": [
        1.770766019821167,
        9.488643646240234,
        1.3256499767303467
      ],
      "min": [
        -0.6169049739837646,
        8.36125659942627,
        -1.3354120254516602
      ],
      "type": "VEC3"
    },
    {
      "bufferView": 2,
      "byteOffset": 3931920,
      "componentType": 5126,
      "count": 65532,
      "max": [
        0.999667763710022,
        0.9357358813285828,
        0.9999922513961792
      ],
      "min": [
        -0.9999971389770508,
        -0.9999988675117493,
        -0.9868823289871216
      ],
      "type": "VEC3"
    },
    {
      "bufferView": 1,
      "byteOffset": 1048512,
      "componentType": 5126,
      "count": 65532,
      "max": [
        0.989795982837677,
        0.9916679859161377
      ],
      "min": [
        0.07345200330018997,
        0.009018000215291977
      ],
      "type": "VEC2"
    },
    {
      "bufferView": 0,
      "byteOffset": 2748216,
      "componentType": 5125,
      "count": 321690,
      "type": "SCALAR"
    },
    {
      "bufferView": 2,
      "byteOffset": 4718304,
      "componentType": 5126,
      "count": 65532,
      "max": [
        2.2797060012817383,
        9.410242080688477,
        1.2411710023880005
      ],
      "min": [
        -0.4803760051727295,
        8.39815616607666,
        -1.3070019483566284
      ],
      "type": "VEC3"
    },
    {
      "bufferView": 2,
      "byteOffset": 5504688,
      "componentType": 5126,
      "count": 65532,
      "max": [
        0.9999709725379944,
        0.9990688562393188,
        0.9999857544898987
      ],
      "min": [
        -0.9999991059303284,
        -0.9999871253967285,
        -0.9981130957603455
      ],
      "type": "VEC3"
    },
    {
      "bufferView": 1,
      "byteOffset": 1572768,
      "componentType": 5126,
      "count": 65532,
      "max": [
        0.9867969751358032,
        0.9908139705657959
      ],
      "min": [
        0.003837999887764454,
        0.0036539998836815357
      ],
      "type": "VEC2"
    },
    {
      "bufferView": 0,
      "byteOffset": 4034976,
      "componentType": 5125,
      "count": 314571,
      "type": "SCALAR"
    },
    {
      "bufferView": 2,
      "byteOffset": 6291072,
      "componentType": 5126,
      "count": 65532,
      "max": [
        2.283704996109009,
        9.468063354492188,
        1.296699047088623
      ],
      "min": [
        -0.5850290060043335,
        8.399799346923828,
        -1.2731399536132813
      ],
      "type": "VEC3"
    },
    {
      "bufferView": 2,
      "byteOffset": 7077456,
      "componentType": 5126,
      "count": 65532,
      "max": [
        0.9999556541442871,
        0.9999986290931702,
        0.9999637603759766
      ],
      "min": [
        -0.9999840259552002,
        -0.9999926686286926,
        -0.9999929070472717
      ],
      "type": "VEC3"
    },
    {
      "bufferView": 1,
      "byteOffset": 2097024,
      "componentType": 5126,
      "count": 65532,
      "max": [
        0.9820259809494019,
        0.9910740256309509
      ],
      "min": [
        0.02321000024676323,
        0.00977999996393919
      ],
      "type": "VEC2"
    },
    {
      "bufferView": 0,
      "byteOffset": 5293260,
      "componentType": 5125,
      "count": 321081,
      "type": "SCALAR"
    },
    {
      "bufferView": 2,
      "byteOffset": 7863840,
      "componentType": 5126,
      "count": 65532,
      "max": [
        2.2828049659729004,
        9.802777290344238,
        1.3031840324401855
      ],
      "min": [
        -0.6067370176315308,
        8.414454460144043,
        -1.2548819780349731
      ],
      "type": "VEC3"
    },
    {
      "bufferView": 2,
      "byteOffset": 8650224,
      "componentType": 5126,
      "count": 65532,
      "max": [
        0.9999778866767883,
        0.9999938607215881,
        0.9999117851257324
      ],
      "min": [
        -0.9999979734420776,
        -0.9999969005584717,
        -0.9999772310256958
      ],
      "type": "VEC3"
    },
    {
      "bufferView": 1,
      "byteOffset": 2621280,
      "componentType": 5126,
      "count": 65532,
      "max": [
        0.9891250133514404,
        0.9960929751396179
      ],
      "min": [
        0.005884999874979258,
        0.004288000054657459
      ],
      "type": "VEC2"
    },
    {
      "bufferView": 0,
      "byteOffset": 6577584,
      "componentType": 5125,
      "count": 298779,
      "type": "SCALAR"
    },
    {
      "bufferView": 2,
      "byteOffset": 9436608,
      "componentType": 5126,
      "count": 65532,
      "max": [
        2.283876895904541,
        9.822256088256836,
        1.3256499767303467
      ],
      "min": [
        -0.5872870087623596,
        8.480111122131348,
        -1.2159889936447144
      ],
      "type": "VEC3"
    },
    {
      "bufferView": 2,
      "byteOffset": 10222992,
      "componentType": 5126,
      "count": 65532,
      "max": [
        0.9999905228614807,
        0.9999719858169556,
        0.9999884963035583
      ],
      "min": [
        -0.9999408721923828,
        -0.9998908638954163,
        -0.9997689723968506
      ],
      "type": "VEC3"
    },
    {
      "bufferView": 1,
      "byteOffset": 3145536,
      "componentType": 5126,
      "count": 65532,
      "max": [
        0.9625980257987976,
        0.9959669709205627
      ],
      "min": [
        0.004666999913752079,
        0.030396999791264534
      ],
      "type": "VEC2"
    },
    {
      "bufferView": 0,
      "byteOffset": 7772700,
      "componentType": 5125,
      "count": 304848,
      "type": "SCALAR"
    },
    {
      "bufferView": 2,
      "byteOffset": 11009376,
      "componentType": 5126,
      "count": 65532,
      "max": [
        1.3998980522155762,
        9.798331260681152,
        1.044396996498108
      ],
      "min": [
        -0.613647997379303,
        8.691839218139648,
        -1.1655189990997314
      ],
      "type": "VEC3"
    },
    {
      "bufferView": 2,
      "byteOffset": 11795760,
      "componentType": 5126,
      "count": 65532,
      "max": [
        0.9999998807907104,
        0.9999832510948181,
        0.9999922513961792
      ],
      "min": [
        -0.9999600052833557,
        -0.9997886419296265,
        -0.9990988969802856
      ],
      "type": "VEC3"
    },
    {
      "bufferView": 1,
      "byteOffset": 3669792,
      "componentType": 5126,
      "count": 65532,
      "max": [
        0.969868004322052,
        0.9814540147781372
      ],
      "min": [
        0.05521899834275246,
        0.037769000977277756
      ],
      "type": "VEC2"
    },
    {
      "bufferView": 0,
      "byteOffset": 8992092,
      "componentType": 5125,
      "count": 325608,
      "type": "SCALAR"
    },
    {
      "bufferView": 2,
      "byteOffset": 12582144,
      "componentType": 5126,
      "count": 65534,
      "max": [
        1.964290976524353,
        9.822504043579102,
        1.2726279497146606
      ],
      "min": [
        -0.603069007396698,
        8.645657539367676,
        -1.1261110305786133
      ],
      "type": "VEC3"
    },
    {
      "bufferView": 2,
      "byteOffset": 13368552,
      "componentType": 5126,
      "count": 65534,
      "max": [
        0.9999053478240967,
        0.9999986290931702,
        0.9999675750732422
      ],
      "min": [
        -0.999984622001648,
        -0.9999663829803467,
        -0.9990272521972656
      ],
      "type": "VEC3"
    },
    {
      "bufferView": 1,
      "byteOffset": 4194048,
      "componentType": 5126,
      "count": 65534,
      "max": [
        0.9683099985122681,
        0.9934599995613098
      ],
      "min": [
        0.055222999304533005,
        0.0037140001077204943
      ],
      "type": "VEC2"
    },
    {
      "bufferView": 0,
      "byteOffset": 10294524,
      "componentType": 5125,
      "count": 266241,
      "type": "SCALAR"
    },
    {
      "bufferView": 2,
      "byteOffset": 14154960,
      "componentType": 5126,
      "count": 42042,
      "max": [
        2.2820210456848145,
        9.482718467712402,
        1.325626015663147
      ],
      "min": [
        -0.6169049739837646,
        8.554695129394531,
        -1.1942980289459229
      ],
      "type": "VEC3"
    },
    {
      "bufferView": 2,
      "byteOffset": 14659464,
      "componentType": 5126,
      "count": 42042,
      "max": [
        0.9998576641082764,
        0.9999997615814209,
        0.9999857544898987
      ],
      "min": [
        -0.9999293684959412,
        -0.9999931454658508,
        -0.9997310042381287
      ],
      "type": "VEC3"
    },
    {
      "bufferView": 1,
      "byteOffset": 4718320,
      "componentType": 5126,
      "count": 42042,
      "max": [
        0.9691759943962097,
        0.9932739734649658
      ],
      "min": [
        0.05125400051474571,
        0.1093590036034584
      ],
      "type": "VEC2"
    },
    {
      "bufferView": 0,
      "byteOffset": 11359488,
      "componentType": 5125,
      "count": 160128,
      "type": "SCALAR"
    }
  ],
  "asset": {
    "extras": {
      "author": "3DandVR (https://sketchfab.com/3DandVR)",
      "license": "CC-BY-4.0 (http://creativecommons.org/licenses/by/4.0/)",
      "source": "https://sketchfab.com/3d-models/chinese-terracotta-horse-1ffd515f7c8145d0a60e413515262b04",
      "title": "Chinese Terracotta Horse"
    },
    "generator": "Sketchfab-12.68.0",
    "version": "2.0"
  },
  "bufferViews": [
    {
      "buffer": 0,
      "byteLength": 12000000,
      "name": "floatBufferViews",
      "target": 34963
    },
    {
      "buffer": 0,
      "byteLength": 5054656,
      "byteOffset": 12000000,
      "byteStride": 8,
      "name": "floatBufferViews",
      "target": 34962
    },
    {
      "buffer": 0,
      "byteLength": 15163968,
      "byteOffset": 17054656,
      "byteStride": 12,
      "name": "floatBufferViews",
      "target": 34962
    }
  ],
  "buffers": [
    {
      "byteLength": 32218624,
      "uri": "scene.bin"
    }
  ],
  "extensionsUsed": [
    "KHR_materials_unlit"
  ],
  "images": [
    {
      "uri": "textures/Figur-Pferd-Chinesisch-v2_1M.1001_baseColor.jpeg"
    }
  ],
  "materials": [
    {
      "doubleSided": true,
      "extensions": {
        "KHR_materials_unlit": {}
      },
      "name": "Figur-Pferd-Chinesisch-v2_1M.1001",
      "pbrMetallicRoughness": {
        "baseColorTexture": {
          "index": 0
        },
        "metallicFactor": 0.0
      }
    }
  ],
  "meshes": [
    {
      "name": "Object_0",
      "primitives": [
        {
          "attributes": {
            "NORMAL": 1,
            "POSITION": 0,
            "TEXCOORD_0": 2
          },
          "indices": 3,
          "material": 0,
          "mode": 4
        }
      ]
    },
    {
      "name": "Object_1",
      "primitives": [
        {
          "attributes": {
            "NORMAL": 5,
            "POSITION": 4,
            "TEXCOORD_0": 6
          },
          "indices": 7,
          "material": 0,
          "mode": 4
        }
      ]
    },
    {
      "name": "Object_2",
      "primitives": [
        {
          "attributes": {
            "NORMAL": 9,
            "POSITION": 8,
            "TEXCOORD_0": 10
          },
          "indices": 11,
          "material": 0,
          "mode": 4
        }
      ]
    },
    {
      "name": "Object_3",
      "primitives": [
        {
          "attributes": {
            "NORMAL": 13,
            "POSITION": 12,
            "TEXCOORD_0": 14
          },
          "indices": 15,
          "material": 0,
          "mode": 4
        }
      ]
    },
    {
      "name": "Object_4",
      "primitives": [
        {
          "attributes": {
            "NORMAL": 17,
            "POSITION": 16,
            "TEXCOORD_0": 18
          },
          "indices": 19,
          "material": 0,
          "mode": 4
        }
      ]
    },
    {
      "name": "Object_5",
      "primitives": [
        {
          "attributes": {
            "NORMAL": 21,
            "POSITION": 20,
            "TEXCOORD_0": 22
          },
          "indices": 23,
          "material": 0,
          "mode": 4
        }
      ]
    },
    {
      "name": "Object_6",
      "primitives": [
        {
          "attributes": {
            "NORMAL": 25,
            "POSITION": 24,
            "TEXCOORD_0": 26
          },
          "indices": 27,
          "material": 0,
          "mode": 4
        }
      ]
    },
    {
      "name": "Object_7",
      "primitives": [
        {
          "attributes": {
            "NORMAL": 29,
            "POSITION": 28,
            "TEXCOORD_0": 30
          },
          "indices": 31,
          "material": 0,
          "mode": 4
        }
      ]
    },
    {
      "name": "Object_8",
      "primitives": [
        {
          "attributes": {
            "NORMAL": 33,
            "POSITION": 32,
            "TEXCOORD_0": 34
          },
          "indices": 35,
          "material": 0,
          "mode": 4
        }
      ]
    },
    {
      "name": "Object_9",
      "primitives": [
        {
          "attributes": {
            "NORMAL": 37,
            "POSITION": 36,
            "TEXCOORD_0": 38
          },
          "indices": 39,
          "material": 0,
          "mode": 4
        }
      ]
    }
  ],
  "nodes": [
    {
      "children": [
        1
      ],
      "matrix": [
        0.9996821284294128,
        5.1646700721391766e-18,
        -0.025212731212377548,
        0.0,
        -0.024205001071095467,
        -0.2798940539360044,
        -0.9597256779670716,
        0.0,
        -0.007056893780827522,
        0.9600309133529664,
        -0.27980509400367715,
        0.0,
        0.21617454290390015,
        2.4965765476226807,
        -0.3376046419143671,
        1.0
      ],
      "name": "Sketchfab_model"
    },
    {
      "children": [
        2,
        3,
        4,
        5,
        6,
        7,
        8,
        9,
        10,
        11
      ],
      "name": "Figur-Pferd-Chinesisch-v2_1M.obj.cleaner.materialmerger.gles"
    },
    {
      "mesh": 0,
      "name": "Object_2"
    },
    {
      "mesh": 1,
      "name": "Object_3"
    },
    {
      "mesh": 2,
      "name": "Object_4"
    },
    {
      "mesh": 3,
      "name": "Object_5"
    },
    {
      "mesh": 4,
      "name": "Object_6"
    },
    {
      "mesh": 5,
      "name": "Object_7"
    },
    {
      "mesh": 6,
      "name": "Object_8"
    },
    {
      "mesh": 7,
      "name": "Object_9"
    },
    {
      "mesh": 8,
      "name": "Object_10"
    },
    {
      "mesh": 9,
      "name": "Object_11"
    }
  ],
  "samplers": [
    {
      "magFilter": 9729,
      "minFilter": 9987,
      "wrapS": 10497,
      "wrapT": 10497
    }
  ],
  "scene": 0,
  "scenes": [
    {
      "name": "Sketchfab_Scene",
      "nodes": [
        0
      ]
    }
  ],
  "textures": [
    {
      "sampler": 0,
      "source": 0
    }
  ]
}
